<mxfile host="app.diagrams.net" modified="2020-10-22T11:00:03.154Z" agent="5.0 (Windows NT 10.0; Win64; x64) AppleWebKit/537.36 (KHTML, like Gecko) Chrome/86.0.4240.75 Safari/537.36" etag="PB9FwSoTrugM32t7ktsl" version="13.8.1" type="github">
  <diagram name="Page-1" id="74b105a0-9070-1c63-61bc-23e55f88626e">
    <mxGraphModel dx="1730" dy="913" grid="1" gridSize="10" guides="1" tooltips="1" connect="1" arrows="1" fold="1" page="1" pageScale="1.5" pageWidth="1169" pageHeight="826" background="none" math="0" shadow="0">
      <root>
        <mxCell id="0" style=";html=1;" />
        <mxCell id="1" style=";html=1;" parent="0" />
        <mxCell id="10b056a9c633e61c-30" value="Edge detection" style="text;strokeColor=none;fillColor=none;html=1;fontSize=24;fontStyle=1;verticalAlign=middle;align=center;" parent="1" vertex="1">
          <mxGeometry x="80" y="40" width="1590" height="40" as="geometry" />
        </mxCell>
        <mxCell id="DMXKYdWP3Fc59WBJMRq4-9" style="edgeStyle=orthogonalEdgeStyle;rounded=0;orthogonalLoop=1;jettySize=auto;html=1;entryX=0.5;entryY=0;entryDx=0;entryDy=0;" edge="1" parent="1" source="DMXKYdWP3Fc59WBJMRq4-2" target="DMXKYdWP3Fc59WBJMRq4-4">
          <mxGeometry relative="1" as="geometry" />
        </mxCell>
        <mxCell id="DMXKYdWP3Fc59WBJMRq4-2" value="" style="ellipse;whiteSpace=wrap;html=1;" vertex="1" parent="1">
          <mxGeometry x="457.5" y="140" width="140" height="110" as="geometry" />
        </mxCell>
        <mxCell id="DMXKYdWP3Fc59WBJMRq4-3" value="&lt;span style=&quot;font-size: 40px&quot;&gt;START&lt;/span&gt;" style="text;html=1;resizable=0;autosize=1;align=center;verticalAlign=middle;points=[];fillColor=none;strokeColor=none;rounded=0;" vertex="1" parent="1">
          <mxGeometry x="457.5" y="180" width="140" height="30" as="geometry" />
        </mxCell>
        <mxCell id="DMXKYdWP3Fc59WBJMRq4-10" style="edgeStyle=orthogonalEdgeStyle;rounded=0;orthogonalLoop=1;jettySize=auto;html=1;entryX=0.5;entryY=0;entryDx=0;entryDy=0;" edge="1" parent="1" source="DMXKYdWP3Fc59WBJMRq4-4" target="DMXKYdWP3Fc59WBJMRq4-6">
          <mxGeometry relative="1" as="geometry" />
        </mxCell>
        <mxCell id="DMXKYdWP3Fc59WBJMRq4-4" value="" style="shape=parallelogram;perimeter=parallelogramPerimeter;whiteSpace=wrap;html=1;fixedSize=1;" vertex="1" parent="1">
          <mxGeometry x="452.5" y="330" width="150" height="80" as="geometry" />
        </mxCell>
        <mxCell id="DMXKYdWP3Fc59WBJMRq4-5" value="&lt;font style=&quot;font-size: 26px&quot;&gt;Power On&lt;/font&gt;" style="text;html=1;resizable=0;autosize=1;align=center;verticalAlign=middle;points=[];fillColor=none;strokeColor=none;rounded=0;" vertex="1" parent="1">
          <mxGeometry x="462.5" y="360" width="130" height="20" as="geometry" />
        </mxCell>
        <mxCell id="DMXKYdWP3Fc59WBJMRq4-51" style="edgeStyle=orthogonalEdgeStyle;rounded=0;orthogonalLoop=1;jettySize=auto;html=1;entryX=0.5;entryY=0;entryDx=0;entryDy=0;endArrow=classicThin;endFill=1;fontSize=18;exitX=0.5;exitY=1;exitDx=0;exitDy=0;" edge="1" parent="1" source="DMXKYdWP3Fc59WBJMRq4-6" target="DMXKYdWP3Fc59WBJMRq4-48">
          <mxGeometry relative="1" as="geometry">
            <Array as="points">
              <mxPoint x="543" y="660" />
            </Array>
          </mxGeometry>
        </mxCell>
        <mxCell id="DMXKYdWP3Fc59WBJMRq4-6" value="" style="rhombus;whiteSpace=wrap;html=1;" vertex="1" parent="1">
          <mxGeometry x="430" y="520" width="195" height="140" as="geometry" />
        </mxCell>
        <mxCell id="DMXKYdWP3Fc59WBJMRq4-11" style="edgeStyle=orthogonalEdgeStyle;rounded=0;orthogonalLoop=1;jettySize=auto;html=1;endArrow=none;endFill=0;exitX=1;exitY=0.5;exitDx=0;exitDy=0;" edge="1" parent="1" source="DMXKYdWP3Fc59WBJMRq4-6">
          <mxGeometry relative="1" as="geometry">
            <mxPoint x="827.5" y="300" as="targetPoint" />
          </mxGeometry>
        </mxCell>
        <mxCell id="DMXKYdWP3Fc59WBJMRq4-8" value="&lt;font&gt;&lt;font style=&quot;font-size: 20px&quot;&gt;Check IR Sensors&lt;/font&gt;&lt;br&gt;&lt;/font&gt;" style="text;html=1;resizable=0;autosize=1;align=center;verticalAlign=middle;points=[];fillColor=none;strokeColor=none;rounded=0;" vertex="1" parent="1">
          <mxGeometry x="437.5" y="580" width="180" height="20" as="geometry" />
        </mxCell>
        <mxCell id="DMXKYdWP3Fc59WBJMRq4-13" value="&lt;span style=&quot;font-size: 18px&quot;&gt;(Both front sensors&lt;br&gt;&amp;nbsp;detect edge)&lt;br&gt;||&lt;br&gt;(Both front sensors&lt;br&gt;&amp;nbsp;and one&lt;br&gt;&amp;nbsp;of the rear sensors&lt;br&gt;detect edge)&lt;br&gt;&lt;/span&gt;" style="text;html=1;resizable=0;autosize=1;align=center;verticalAlign=middle;points=[];fillColor=none;strokeColor=none;rounded=0;" vertex="1" parent="1">
          <mxGeometry x="657.5" y="375" width="170" height="110" as="geometry" />
        </mxCell>
        <mxCell id="DMXKYdWP3Fc59WBJMRq4-15" value="" style="endArrow=classicThin;html=1;endFill=1;" edge="1" parent="1">
          <mxGeometry width="50" height="50" relative="1" as="geometry">
            <mxPoint x="827.5" y="300" as="sourcePoint" />
            <mxPoint x="997.5" y="300" as="targetPoint" />
          </mxGeometry>
        </mxCell>
        <mxCell id="DMXKYdWP3Fc59WBJMRq4-20" style="edgeStyle=orthogonalEdgeStyle;rounded=0;orthogonalLoop=1;jettySize=auto;html=1;endArrow=classicThin;endFill=1;" edge="1" parent="1" source="DMXKYdWP3Fc59WBJMRq4-16">
          <mxGeometry relative="1" as="geometry">
            <mxPoint x="957.5" y="440" as="targetPoint" />
            <Array as="points">
              <mxPoint x="1087.5" y="390" />
              <mxPoint x="957.5" y="390" />
              <mxPoint x="957.5" y="440" />
            </Array>
          </mxGeometry>
        </mxCell>
        <mxCell id="DMXKYdWP3Fc59WBJMRq4-22" style="edgeStyle=orthogonalEdgeStyle;rounded=0;orthogonalLoop=1;jettySize=auto;html=1;endArrow=classicThin;endFill=1;" edge="1" parent="1" source="DMXKYdWP3Fc59WBJMRq4-16">
          <mxGeometry relative="1" as="geometry">
            <mxPoint x="1347.5" y="440" as="targetPoint" />
          </mxGeometry>
        </mxCell>
        <mxCell id="DMXKYdWP3Fc59WBJMRq4-16" value="" style="rhombus;whiteSpace=wrap;html=1;" vertex="1" parent="1">
          <mxGeometry x="997.5" y="240" width="180" height="120" as="geometry" />
        </mxCell>
        <mxCell id="DMXKYdWP3Fc59WBJMRq4-17" value="&lt;font style=&quot;font-size: 18px&quot;&gt;Last Turn Check&lt;/font&gt;" style="text;html=1;resizable=0;autosize=1;align=center;verticalAlign=middle;points=[];fillColor=none;strokeColor=none;rounded=0;" vertex="1" parent="1">
          <mxGeometry x="1012.5" y="290" width="150" height="20" as="geometry" />
        </mxCell>
        <mxCell id="DMXKYdWP3Fc59WBJMRq4-21" value="&lt;font style=&quot;font-size: 17px&quot;&gt;Left turn&lt;/font&gt;" style="text;html=1;resizable=0;autosize=1;align=center;verticalAlign=middle;points=[];fillColor=none;strokeColor=none;rounded=0;" vertex="1" parent="1">
          <mxGeometry x="977.5" y="360" width="80" height="20" as="geometry" />
        </mxCell>
        <mxCell id="DMXKYdWP3Fc59WBJMRq4-23" value="&lt;font style=&quot;font-size: 17px&quot;&gt;Right turn&lt;/font&gt;" style="text;html=1;resizable=0;autosize=1;align=center;verticalAlign=middle;points=[];fillColor=none;strokeColor=none;rounded=0;" vertex="1" parent="1">
          <mxGeometry x="1227.5" y="270" width="90" height="20" as="geometry" />
        </mxCell>
        <mxCell id="DMXKYdWP3Fc59WBJMRq4-43" style="edgeStyle=orthogonalEdgeStyle;rounded=0;orthogonalLoop=1;jettySize=auto;html=1;entryX=0.5;entryY=0;entryDx=0;entryDy=0;endArrow=classicThin;endFill=1;fontSize=18;" edge="1" parent="1" source="DMXKYdWP3Fc59WBJMRq4-24" target="DMXKYdWP3Fc59WBJMRq4-27">
          <mxGeometry relative="1" as="geometry" />
        </mxCell>
        <mxCell id="DMXKYdWP3Fc59WBJMRq4-24" value="" style="rounded=1;whiteSpace=wrap;html=1;fontSize=18;" vertex="1" parent="1">
          <mxGeometry x="897.5" y="440" width="120" height="100" as="geometry" />
        </mxCell>
        <mxCell id="DMXKYdWP3Fc59WBJMRq4-26" value="Turn 90&lt;sup&gt;o&lt;/sup&gt;&amp;nbsp;&lt;br&gt;to the&lt;br&gt;right" style="text;html=1;resizable=0;autosize=1;align=center;verticalAlign=middle;points=[];fillColor=none;strokeColor=none;rounded=0;fontSize=18;" vertex="1" parent="1">
          <mxGeometry x="912.5" y="450" width="90" height="80" as="geometry" />
        </mxCell>
        <mxCell id="DMXKYdWP3Fc59WBJMRq4-27" value="" style="rounded=1;whiteSpace=wrap;html=1;fontSize=18;" vertex="1" parent="1">
          <mxGeometry x="897.5" y="620" width="120" height="60" as="geometry" />
        </mxCell>
        <mxCell id="DMXKYdWP3Fc59WBJMRq4-30" value="" style="rounded=1;whiteSpace=wrap;html=1;fontSize=18;" vertex="1" parent="1">
          <mxGeometry x="897.5" y="750" width="120" height="100" as="geometry" />
        </mxCell>
        <mxCell id="DMXKYdWP3Fc59WBJMRq4-47" style="edgeStyle=orthogonalEdgeStyle;rounded=0;orthogonalLoop=1;jettySize=auto;html=1;endArrow=classicThin;endFill=1;fontSize=18;" edge="1" parent="1">
          <mxGeometry relative="1" as="geometry">
            <mxPoint x="957.5" y="900" as="targetPoint" />
            <mxPoint x="957.5" y="850" as="sourcePoint" />
          </mxGeometry>
        </mxCell>
        <mxCell id="DMXKYdWP3Fc59WBJMRq4-31" value="Turn 90&lt;sup&gt;o&lt;/sup&gt;&amp;nbsp;&lt;br&gt;to the&lt;br&gt;right" style="text;html=1;resizable=0;autosize=1;align=center;verticalAlign=middle;points=[];fillColor=none;strokeColor=none;rounded=0;fontSize=18;" vertex="1" parent="1">
          <mxGeometry x="912.5" y="760" width="90" height="80" as="geometry" />
        </mxCell>
        <mxCell id="DMXKYdWP3Fc59WBJMRq4-45" style="edgeStyle=orthogonalEdgeStyle;rounded=0;orthogonalLoop=1;jettySize=auto;html=1;entryX=0.5;entryY=0;entryDx=0;entryDy=0;endArrow=classicThin;endFill=1;fontSize=18;" edge="1" parent="1" source="DMXKYdWP3Fc59WBJMRq4-32" target="DMXKYdWP3Fc59WBJMRq4-30">
          <mxGeometry relative="1" as="geometry" />
        </mxCell>
        <mxCell id="DMXKYdWP3Fc59WBJMRq4-32" value="Move forward &lt;br&gt;8cm" style="text;html=1;resizable=0;autosize=1;align=center;verticalAlign=middle;points=[];fillColor=none;strokeColor=none;rounded=0;fontSize=18;" vertex="1" parent="1">
          <mxGeometry x="897.5" y="630" width="120" height="50" as="geometry" />
        </mxCell>
        <mxCell id="DMXKYdWP3Fc59WBJMRq4-42" style="edgeStyle=orthogonalEdgeStyle;rounded=0;orthogonalLoop=1;jettySize=auto;html=1;entryX=0.5;entryY=0;entryDx=0;entryDy=0;endArrow=classicThin;endFill=1;fontSize=18;" edge="1" parent="1" source="DMXKYdWP3Fc59WBJMRq4-33" target="DMXKYdWP3Fc59WBJMRq4-35">
          <mxGeometry relative="1" as="geometry" />
        </mxCell>
        <mxCell id="DMXKYdWP3Fc59WBJMRq4-33" value="" style="rounded=1;whiteSpace=wrap;html=1;fontSize=18;" vertex="1" parent="1">
          <mxGeometry x="1287.5" y="440" width="120" height="100" as="geometry" />
        </mxCell>
        <mxCell id="DMXKYdWP3Fc59WBJMRq4-35" value="" style="rounded=1;whiteSpace=wrap;html=1;fontSize=18;" vertex="1" parent="1">
          <mxGeometry x="1287.5" y="620" width="120" height="60" as="geometry" />
        </mxCell>
        <mxCell id="DMXKYdWP3Fc59WBJMRq4-46" style="edgeStyle=orthogonalEdgeStyle;rounded=0;orthogonalLoop=1;jettySize=auto;html=1;exitX=0.5;exitY=1;exitDx=0;exitDy=0;endArrow=classicThin;endFill=1;fontSize=18;entryX=0.5;entryY=0;entryDx=0;entryDy=0;" edge="1" parent="1" source="DMXKYdWP3Fc59WBJMRq4-37" target="DMXKYdWP3Fc59WBJMRq4-48">
          <mxGeometry relative="1" as="geometry">
            <mxPoint x="525.5" y="945" as="targetPoint" />
          </mxGeometry>
        </mxCell>
        <mxCell id="DMXKYdWP3Fc59WBJMRq4-37" value="" style="rounded=1;whiteSpace=wrap;html=1;fontSize=18;" vertex="1" parent="1">
          <mxGeometry x="1287.5" y="750" width="120" height="100" as="geometry" />
        </mxCell>
        <mxCell id="DMXKYdWP3Fc59WBJMRq4-38" value="Turn 90&lt;sup&gt;o&lt;/sup&gt;&amp;nbsp;&lt;br&gt;to the&lt;br&gt;left" style="text;html=1;resizable=0;autosize=1;align=center;verticalAlign=middle;points=[];fillColor=none;strokeColor=none;rounded=0;fontSize=18;" vertex="1" parent="1">
          <mxGeometry x="1302.5" y="450" width="90" height="80" as="geometry" />
        </mxCell>
        <mxCell id="DMXKYdWP3Fc59WBJMRq4-39" value="Turn 90&lt;sup&gt;o&lt;/sup&gt;&amp;nbsp;&lt;br&gt;to the&lt;br&gt;left" style="text;html=1;resizable=0;autosize=1;align=center;verticalAlign=middle;points=[];fillColor=none;strokeColor=none;rounded=0;fontSize=18;" vertex="1" parent="1">
          <mxGeometry x="1302.5" y="760" width="90" height="80" as="geometry" />
        </mxCell>
        <mxCell id="DMXKYdWP3Fc59WBJMRq4-44" style="edgeStyle=orthogonalEdgeStyle;rounded=0;orthogonalLoop=1;jettySize=auto;html=1;entryX=0.5;entryY=0;entryDx=0;entryDy=0;endArrow=classicThin;endFill=1;fontSize=18;" edge="1" parent="1" source="DMXKYdWP3Fc59WBJMRq4-40" target="DMXKYdWP3Fc59WBJMRq4-37">
          <mxGeometry relative="1" as="geometry" />
        </mxCell>
        <mxCell id="DMXKYdWP3Fc59WBJMRq4-40" value="Move forward &lt;br&gt;8cm" style="text;html=1;resizable=0;autosize=1;align=center;verticalAlign=middle;points=[];fillColor=none;strokeColor=none;rounded=0;fontSize=18;" vertex="1" parent="1">
          <mxGeometry x="1287.5" y="630" width="120" height="50" as="geometry" />
        </mxCell>
        <mxCell id="DMXKYdWP3Fc59WBJMRq4-48" value="" style="rounded=1;whiteSpace=wrap;html=1;fontSize=18;" vertex="1" parent="1">
          <mxGeometry x="467.5" y="950" width="150" height="60" as="geometry" />
        </mxCell>
        <mxCell id="DMXKYdWP3Fc59WBJMRq4-50" style="edgeStyle=orthogonalEdgeStyle;rounded=0;orthogonalLoop=1;jettySize=auto;html=1;endArrow=classicThin;endFill=1;fontSize=18;entryX=0;entryY=0.5;entryDx=0;entryDy=0;" edge="1" parent="1" target="DMXKYdWP3Fc59WBJMRq4-6">
          <mxGeometry relative="1" as="geometry">
            <mxPoint x="310" y="590" as="targetPoint" />
            <mxPoint x="466" y="980" as="sourcePoint" />
            <Array as="points">
              <mxPoint x="370" y="980" />
              <mxPoint x="370" y="590" />
            </Array>
          </mxGeometry>
        </mxCell>
        <mxCell id="DMXKYdWP3Fc59WBJMRq4-49" value="&lt;font style=&quot;font-size: 20px&quot;&gt;Move forward&lt;/font&gt;" style="text;html=1;resizable=0;autosize=1;align=center;verticalAlign=middle;points=[];fillColor=none;strokeColor=none;rounded=0;fontSize=18;" vertex="1" parent="1">
          <mxGeometry x="472.5" y="965" width="140" height="30" as="geometry" />
        </mxCell>
        <mxCell id="DMXKYdWP3Fc59WBJMRq4-52" value="(No edges detected)&lt;br&gt;||&lt;br&gt;(Edges on one of&lt;br&gt;the sides detected)&lt;br&gt;||&lt;br&gt;(Rear edges detected)" style="text;html=1;resizable=0;autosize=1;align=center;verticalAlign=middle;points=[];fillColor=none;strokeColor=none;rounded=0;fontSize=18;" vertex="1" parent="1">
          <mxGeometry x="540" y="690" width="190" height="140" as="geometry" />
        </mxCell>
      </root>
    </mxGraphModel>
  </diagram>
</mxfile>
